<svg width="338" height="215" viewBox="0 0 338 215" fill="none" xmlns="http://www.w3.org/2000/svg">
<rect width="338" height="215" fill="white"/>
<path d="M57.0074 88.6565C60.3205 81.3676 76.6106 76.0234 83.2883 71.8499C86.6799 69.7301 89.6685 67.0624 93.5865 66.0829C101.804 64.0285 109.648 60.9797 117.973 58.9977C135.081 54.9243 152.055 55.0875 169.463 53.8075C181.76 52.9033 194.117 52.3131 206.29 54.5489C219.056 56.8937 234.276 58.3722 246.164 63.7761C259.145 69.6764 278.268 74.5352 287.522 86.4321C290.722 90.5472 288.345 104.745 288.345 109.253C288.345 115.809 284.404 122.994 282.084 129.025C279.747 135.102 266.618 146.958 261.076 149.292C251.611 153.277 241.438 155.215 231.994 159.508C225.093 162.645 216.314 161.32 208.926 161.32C197.392 161.32 185.858 161.32 174.324 161.32C153.549 161.32 133.518 161.402 112.947 158.354C106.154 157.348 100.953 155.483 93.5865 155.389C87.0269 155.304 82.5064 152.714 76.6151 150.61C67.2647 147.271 58.1535 139.864 51.9819 132.321C45.2916 124.144 51.0862 110.924 57.3369 105.298C60.8031 102.179 65.0389 100.892 68.2118 96.8126C72.1202 91.7875 75.5988 91.7016 81.0639 89.8099C87.4088 87.6136 88.2708 84.2077 95.5637 84.2077C100.699 84.2077 103.168 78.2759 108.169 78.2759C114.487 78.2759 115.763 72.3442 120.774 72.3442C126.665 72.3442 132.977 70.4065 138.651 69.4607C144.3 68.5192 148.2 66.4124 154.14 66.4124C158.836 66.4124 163.532 66.4124 168.228 66.4124C179.102 66.4124 189.977 66.4124 200.852 66.4124C208.623 66.4124 216.657 73.0936 224.414 75.31C235.122 78.3694 246.94 81.1693 257.863 84.29C258.466 84.4625 259.991 87.8426 260.499 88.6565C261.913 90.9192 264.646 89.7342 266.101 92.2814C266.628 93.2028 268.568 94.7052 269.397 95.7416C270.913 97.6372 270.55 99.5177 270.55 102.003C270.55 105.145 272.034 113.701 269.726 116.008C267.175 118.559 259.76 120.618 258.687 122.764" stroke="#9DC284" stroke-width="4" stroke-linecap="round"/>
</svg>
